<?xml version="1.0" encoding="utf-8"?>
<!-- Generator: Adobe Illustrator 16.0.0, SVG Export Plug-In . SVG Version: 6.00 Build 0)  -->
<!DOCTYPE svg PUBLIC "-//W3C//DTD SVG 1.1//EN" "http://www.w3.org/Graphics/SVG/1.1/DTD/svg11.dtd">
<svg version="1.1" id="Layer_1" xmlns="http://www.w3.org/2000/svg" xmlns:xlink="http://www.w3.org/1999/xlink" x="0px" y="0px"
	 width="1280px" height="346.484px" viewBox="0 0 1280 346.484" enable-background="new 0 0 1280 346.484" xml:space="preserve">
<path fill="#D83920" d="M285.092,300.872c0,13.512-11.063,24.575-24.569,24.575H34.089c-13.518,0-24.569-11.063-24.569-24.575
	V36.599c0-13.52,11.051-24.583,24.569-24.583h226.434c13.506,0,24.569,11.063,24.569,24.583V300.872z"/>
<path fill="#EF5A29" d="M285.092,149.636c0,76.003-61.615,137.618-137.612,137.618c-76.004,0-137.613-61.615-137.613-137.618
	c0-76,61.609-137.62,137.613-137.62C223.477,12.016,285.092,73.636,285.092,149.636z"/>
<radialGradient id="SVGID_1_" cx="-1223.4219" cy="-129.043" r="569.1309" gradientTransform="matrix(0.2418 0 0 0.2418 443.3028 180.8376)" gradientUnits="userSpaceOnUse">
	<stop  offset="0.5744" style="stop-color:#D83920;stop-opacity:0"/>
	<stop  offset="0.9348" style="stop-color:#D83920;stop-opacity:0.6512"/>
	<stop  offset="1" style="stop-color:#D83920;stop-opacity:0.95"/>
</radialGradient>
<path fill="url(#SVGID_1_)" d="M285.092,149.636c0,76.003-61.615,137.618-137.612,137.618c-76.004,0-137.613-61.615-137.613-137.618
	c0-76,61.609-137.62,137.613-137.62C223.477,12.016,285.092,73.636,285.092,149.636z"/>
<g>
	<defs>
		<path id="SVGID_2_" d="M285.092,149.636c0,76.003-61.615,137.618-137.612,137.618c-76.004,0-137.613-61.615-137.613-137.618
			c0-76,61.609-137.62,137.613-137.62C223.477,12.016,285.092,73.636,285.092,149.636z"/>
	</defs>
	<clipPath id="SVGID_3_">
		<use xlink:href="#SVGID_2_"  overflow="visible"/>
	</clipPath>
</g>
<polygon fill="#F4D256" points="31.316,248.842 90.688,203.8 71.288,190.902 100.007,145.866 45.764,194.405 62.297,208.683 "/>
<path fill="#FCF9E2" d="M197.654,84.334c-1.572-4.527-4.44-8.418-8.201-11.237c0-0.036,0.005-0.071,0.005-0.102
	c0-18.41-14.925-33.323-33.33-33.323c-14.949,0-27.608,9.838-31.824,23.408c-32.665,1.69-58.647,28.628-58.647,61.708
	c0,34.174,27.702,61.874,61.879,61.874c21.955,0,41.179-11.463,52.16-28.697c2.367,0.455,4.798,0.719,7.289,0.719
	c20.96,0,37.939-16.992,37.939-37.946C224.925,103.487,213.41,88.957,197.654,84.334z"/>
<path fill="#F4D256" d="M127.538,196.129c-39.341,0-71.346-31.999-71.346-71.341c0-35.867,26.541-65.759,61.467-70.581
	c7.083-14.588,21.826-24.01,38.471-24.01c22.119,0,40.365,16.862,42.579,38.422c2.392,2.393,4.399,5.135,5.964,8.15
	c17.716,7.148,29.721,24.611,29.721,43.968c0,27.078-22.998,49.021-50.198,47.325C170.713,185.742,149.964,196.129,127.538,196.129z
	 M156.129,49.133c-10.51,0-19.671,6.735-22.78,16.761l-1.966,6.294l-6.595,0.347c-27.849,1.437-49.657,24.393-49.657,52.253
	c0,28.898,23.504,52.407,52.406,52.407c17.957,0,34.473-9.097,44.182-24.327l3.461-5.436l6.341,1.231
	c18.111,3.538,33.937-10.438,33.937-27.926c0-12.553-8.408-23.785-20.478-27.306l-4.668-1.377l-1.596-4.612
	c-0.954-2.726-2.661-5.055-4.945-6.776l-3.78-2.836v-5.135C179.827,59.685,169.182,49.133,156.129,49.133z"/>
<polygon fill="#FCF9E2" points="166.237,146.078 179.744,158.948 179.744,137.878 "/>
<polygon fill="#FCF9E2" points="176.646,78.017 195.793,73.92 191.69,97.165 "/>
<polygon fill="#F4D256" points="202.411,171.243 254.559,221.323 234.411,231.562 257.025,278.181 210.206,225.321 227.751,213.416 
	"/>
<polygon fill="#F4D256" points="207.428,89.805 233.31,43.852 244.203,56.221 273.017,31.77 244.203,74.449 232.604,64.228 "/>
<g>
	<path fill="#3A3A3C" d="M325.471,87.451c0.93-2.654,2.266-4.97,4.011-6.947c1.744-1.978,3.885-3.525,6.422-4.651
		c2.539-1.124,5.397-1.685,8.575-1.685c3.216,0,6.083,0.562,8.603,1.685c2.518,1.126,4.651,2.673,6.394,4.651
		c1.744,1.977,3.081,4.292,4.01,6.947c0.931,2.654,1.396,5.532,1.396,8.632c0,3.023-0.465,5.84-1.396,8.456
		c-0.929,2.616-2.266,4.893-4.01,6.832c-1.743,1.938-3.876,3.458-6.394,4.562c-2.52,1.104-5.387,1.658-8.603,1.658
		c-3.178,0-6.036-0.554-8.575-1.658c-2.537-1.104-4.678-2.624-6.422-4.562c-1.745-1.938-3.081-4.216-4.011-6.832
		c-0.931-2.616-1.396-5.433-1.396-8.456C324.075,92.982,324.54,90.105,325.471,87.451z M333.811,101.169
		c0.408,1.646,1.056,3.13,1.948,4.447c0.891,1.319,2.053,2.374,3.487,3.169c1.433,0.793,3.178,1.189,5.232,1.189
		c2.054,0,3.797-0.396,5.231-1.189c1.433-0.796,2.595-1.851,3.487-3.169c0.891-1.316,1.541-2.8,1.948-4.447
		c0.406-1.647,0.61-3.343,0.61-5.086c0-1.823-0.204-3.585-0.61-5.29c-0.408-1.705-1.058-3.227-1.948-4.562
		c-0.892-1.338-2.054-2.404-3.487-3.2c-1.435-0.793-3.178-1.189-5.231-1.189c-2.054,0-3.799,0.396-5.232,1.189
		c-1.435,0.796-2.597,1.861-3.487,3.2c-0.892,1.335-1.541,2.858-1.948,4.562c-0.406,1.705-0.61,3.467-0.61,5.29
		C333.201,97.826,333.405,99.522,333.811,101.169z"/>
	<path fill="#3A3A3C" d="M389.004,75.156c2.676,0,5.163,0.427,7.47,1.278c2.308,0.854,4.301,2.134,5.986,3.838
		c1.685,1.704,3.001,3.835,3.954,6.394c0.947,2.558,1.426,5.562,1.426,9.009c0,3.023-0.391,5.813-1.167,8.371
		c-0.771,2.558-1.944,4.767-3.514,6.628c-1.569,1.858-3.53,3.323-5.871,4.386c-2.346,1.068-5.107,1.6-8.285,1.6h-17.903V75.156
		H389.004z M388.365,108.986c1.316,0,2.594-0.212,3.838-0.639c1.236-0.427,2.343-1.132,3.312-2.12
		c0.969-0.989,1.74-2.277,2.324-3.866c0.584-1.588,0.87-3.527,0.87-5.812c0-2.093-0.204-3.981-0.605-5.669
		c-0.408-1.685-1.08-3.128-2.01-4.329s-2.159-2.123-3.69-2.762c-1.531-0.639-3.419-0.958-5.667-0.958h-6.511v26.156H388.365z"/>
	<path fill="#3A3A3C" d="M432.077,75.156c2.674,0,5.163,0.427,7.467,1.278c2.308,0.854,4.304,2.134,5.989,3.838
		c1.685,1.704,3.001,3.835,3.951,6.394c0.95,2.558,1.426,5.562,1.426,9.009c0,3.023-0.388,5.813-1.165,8.371
		c-0.773,2.558-1.946,4.767-3.516,6.628c-1.569,1.858-3.527,3.323-5.87,4.386c-2.346,1.068-5.105,1.6-8.283,1.6h-17.903V75.156
		H432.077z M431.438,108.986c1.316,0,2.594-0.212,3.835-0.639c1.239-0.427,2.343-1.132,3.312-2.12
		c0.969-0.989,1.743-2.277,2.327-3.866c0.581-1.588,0.87-3.527,0.87-5.812c0-2.093-0.204-3.981-0.608-5.669
		c-0.408-1.685-1.077-3.128-2.007-4.329s-2.162-2.123-3.69-2.762c-1.531-0.639-3.422-0.958-5.669-0.958h-6.509v26.156H431.438z"/>
	<path fill="#3A3A3C" d="M466.372,75.156v41.504h-9.125V75.156H466.372z"/>
	<path fill="#3A3A3C" d="M518.688,98.872v6.22h-11.567v11.568h-6.22v-11.568h-11.567v-6.22h11.567V87.305h6.22v11.567H518.688z"/>
	<path fill="#3A3A3C" d="M548.74,86.608v4.069h0.116c1.085-1.55,2.393-2.753,3.924-3.604c1.531-0.854,3.285-1.28,5.262-1.28
		c1.897,0,3.632,0.369,5.201,1.104c1.569,0.738,2.762,2.035,3.577,3.896c0.89-1.319,2.101-2.481,3.632-3.489
		c1.531-1.008,3.343-1.512,5.435-1.512c1.589,0,3.062,0.196,4.417,0.581c1.358,0.388,2.52,1.008,3.489,1.861
		s1.724,1.966,2.266,3.343c0.542,1.374,0.815,3.032,0.815,4.97v20.112h-8.255V99.629c0-1.008-0.039-1.958-0.116-2.85
		c-0.077-0.89-0.292-1.666-0.639-2.324c-0.35-0.658-0.864-1.181-1.542-1.569c-0.677-0.388-1.597-0.581-2.762-0.581
		c-1.162,0-2.101,0.223-2.817,0.667c-0.719,0.446-1.28,1.027-1.688,1.746c-0.404,0.716-0.677,1.531-0.812,2.439
		c-0.138,0.912-0.204,1.831-0.204,2.762v16.742h-8.255V99.803c0-0.892-0.019-1.773-0.058-2.646c-0.039-0.87-0.204-1.674-0.493-2.412
		c-0.292-0.735-0.777-1.327-1.454-1.773c-0.677-0.443-1.677-0.667-2.993-0.667c-0.388,0-0.9,0.085-1.542,0.262
		c-0.639,0.173-1.258,0.504-1.858,0.988c-0.603,0.485-1.115,1.181-1.542,2.09c-0.427,0.912-0.639,2.104-0.639,3.577v17.438h-8.255
		V86.608H548.74z"/>
	<path fill="#3A3A3C" d="M593.557,95.125c0.735-1.958,1.781-3.624,3.139-5c1.357-1.374,2.985-2.442,4.884-3.197
		c1.897-0.757,4.029-1.135,6.394-1.135c2.362,0,4.504,0.377,6.421,1.135c1.919,0.754,3.558,1.823,4.913,3.197
		c1.357,1.376,2.404,3.042,3.139,5c0.735,1.955,1.104,4.136,1.104,6.537c0,2.404-0.369,4.574-1.104,6.512
		c-0.735,1.938-1.781,3.593-3.139,4.97c-1.355,1.377-2.993,2.432-4.913,3.167c-1.917,0.738-4.059,1.104-6.421,1.104
		c-2.365,0-4.497-0.366-6.394-1.104c-1.899-0.735-3.527-1.79-4.884-3.167c-1.358-1.376-2.404-3.031-3.139-4.97
		s-1.104-4.108-1.104-6.512C592.453,99.261,592.821,97.08,593.557,95.125z M601.057,105.181c0.231,1.143,0.628,2.17,1.189,3.081
		c0.562,0.909,1.308,1.636,2.239,2.178s2.093,0.815,3.489,0.815c1.393,0,2.566-0.272,3.516-0.815c0.95-0.542,1.705-1.27,2.266-2.178
		c0.562-0.911,0.961-1.938,1.192-3.081c0.231-1.143,0.35-2.316,0.35-3.519c0-1.201-0.119-2.382-0.35-3.544
		c-0.231-1.165-0.631-2.189-1.192-3.081s-1.316-1.619-2.266-2.181c-0.95-0.562-2.123-0.843-3.516-0.843
		c-1.396,0-2.558,0.281-3.489,0.843c-0.931,0.562-1.677,1.289-2.239,2.181c-0.562,0.892-0.958,1.917-1.189,3.081
		c-0.234,1.162-0.35,2.343-0.35,3.544C600.708,102.865,600.823,104.038,601.057,105.181z"/>
	<path fill="#3A3A3C" d="M642.674,92.828h-14.473v-6.22h25.344v6.22l-15.638,17.612h16.741v6.22h-27.612v-6.22L642.674,92.828z"/>
	<path fill="#3A3A3C" d="M659.297,81.958v-6.801h8.255v6.801H659.297z M667.552,86.608v30.052h-8.255V86.608H667.552z"/>
	<path fill="#3A3A3C" d="M682.547,75.156v41.504h-8.255V75.156H682.547z"/>
	<path fill="#3A3A3C" d="M697.543,75.156v41.504h-8.255V75.156H697.543z"/>
	<path fill="#3A3A3C" d="M705.156,91.025c0.851-1.278,1.938-2.305,3.255-3.082c1.318-0.773,2.8-1.327,4.446-1.655
		c1.647-0.33,3.305-0.496,4.971-0.496c1.512,0,3.042,0.107,4.593,0.319c1.55,0.215,2.966,0.631,4.243,1.25
		c1.277,0.622,2.324,1.484,3.139,2.588c0.815,1.104,1.22,2.566,1.22,4.389v15.635c0,1.357,0.077,2.654,0.234,3.896
		c0.154,1.239,0.424,2.17,0.812,2.79h-8.371c-0.154-0.466-0.28-0.939-0.377-1.424s-0.165-0.978-0.204-1.484
		c-1.316,1.358-2.866,2.308-4.65,2.85c-1.781,0.542-3.602,0.812-5.463,0.812c-1.435,0-2.771-0.173-4.012-0.523
		c-1.239-0.347-2.324-0.889-3.255-1.627c-0.931-0.735-1.655-1.666-2.178-2.789c-0.523-1.124-0.785-2.462-0.785-4.012
		c0-1.705,0.298-3.109,0.9-4.213c0.601-1.104,1.374-1.985,2.324-2.646c0.95-0.658,2.034-1.151,3.255-1.481
		c1.223-0.327,2.45-0.589,3.692-0.784c1.239-0.193,2.459-0.35,3.662-0.466c1.2-0.115,2.266-0.289,3.196-0.523
		c0.931-0.231,1.666-0.57,2.209-1.016c0.542-0.446,0.793-1.096,0.757-1.949c0-0.89-0.146-1.597-0.438-2.12
		c-0.289-0.523-0.678-0.931-1.162-1.22c-0.484-0.292-1.047-0.484-1.686-0.581c-0.639-0.097-1.327-0.146-2.065-0.146
		c-1.627,0-2.904,0.347-3.835,1.047c-0.931,0.696-1.474,1.858-1.628,3.485h-8.255C703.821,93.913,704.303,92.305,705.156,91.025z
		 M721.463,102.681c-0.523,0.173-1.088,0.319-1.688,0.435c-0.6,0.116-1.23,0.215-1.889,0.292s-1.316,0.174-1.975,0.289
		c-0.622,0.119-1.23,0.272-1.831,0.465c-0.603,0.196-1.126,0.458-1.569,0.785c-0.446,0.331-0.807,0.747-1.076,1.25
		c-0.272,0.504-0.408,1.143-0.408,1.919c0,0.735,0.136,1.357,0.408,1.859c0.27,0.504,0.639,0.9,1.104,1.192
		c0.466,0.292,1.008,0.493,1.628,0.611c0.619,0.116,1.258,0.173,1.919,0.173c1.627,0,2.886-0.27,3.778-0.815
		c0.892-0.54,1.55-1.189,1.977-1.947c0.427-0.754,0.688-1.52,0.785-2.296c0.096-0.774,0.146-1.394,0.146-1.859v-3.081
		C722.421,102.265,721.985,102.507,721.463,102.681z"/>
</g>
<g>
	<path fill="#3A3A3C" d="M360.512,134.517v56.513l53.268-56.513h37.42l-53.267,53.839l58.421,82.479h-37.613l-41.046-61.284
		l-17.183,17.372v43.912h-29.975V134.517H360.512z"/>
	<path fill="#3A3A3C" d="M484.991,247.16c4.07,3.945,9.926,5.92,17.564,5.92c5.472,0,10.18-1.369,14.128-4.105
		c3.943-2.737,6.363-5.634,7.255-8.688h23.865c-3.819,11.837-9.676,20.305-17.564,25.393c-7.895,5.092-17.441,7.636-28.639,7.636
		c-7.765,0-14.767-1.239-21.001-3.723c-6.24-2.481-11.521-6.014-15.847-10.596c-4.329-4.582-7.671-10.053-10.023-16.419
		c-2.357-6.363-3.533-13.365-3.533-21.001c0-7.383,1.209-14.255,3.626-20.621c2.417-6.363,5.854-11.865,10.309-16.513
		c4.455-4.646,9.77-8.308,15.943-10.979c6.173-2.674,13.013-4.009,20.525-4.009c8.401,0,15.717,1.622,21.956,4.869
		c6.234,3.243,11.358,7.604,15.37,13.076c4.009,5.474,6.903,11.713,8.685,18.71c1.782,7.002,2.418,14.321,1.911,21.956h-71.214
		C478.688,236.851,480.916,243.217,484.991,247.16z M515.632,195.229c-3.244-3.561-8.178-5.345-14.794-5.345
		c-4.329,0-7.925,0.732-10.789,2.194c-2.864,1.465-5.154,3.279-6.873,5.441c-1.718,2.167-2.93,4.458-3.629,6.873
		c-0.699,2.42-1.115,4.584-1.239,6.492h44.103C521.137,204.012,518.879,198.794,515.632,195.229z"/>
	<path fill="#3A3A3C" d="M619.778,172.126v18.137h-19.855v48.878c0,4.582,0.763,7.636,2.291,9.163
		c1.528,1.528,4.582,2.291,9.164,2.291c1.528,0,2.99-0.062,4.392-0.189c1.399-0.127,2.737-0.316,4.009-0.573v21.001
		c-2.291,0.383-4.838,0.637-7.636,0.764c-2.803,0.126-5.537,0.192-8.211,0.192c-4.199,0-8.181-0.286-11.931-0.859
		c-3.756-0.572-7.065-1.685-9.929-3.343c-2.864-1.652-5.125-4.009-6.779-7.062c-1.655-3.057-2.481-7.065-2.481-12.03v-58.231
		h-16.419v-18.137h16.419v-29.592h27.111v29.592H619.778z"/>
	<path fill="#3A3A3C" d="M686.98,172.126v18.137h-19.855v48.878c0,4.582,0.763,7.636,2.291,9.163
		c1.528,1.528,4.582,2.291,9.163,2.291c1.528,0,2.99-0.062,4.393-0.189c1.398-0.127,2.736-0.316,4.009-0.573v21.001
		c-2.291,0.383-4.838,0.637-7.636,0.764c-2.803,0.126-5.537,0.192-8.211,0.192c-4.199,0-8.181-0.286-11.931-0.859
		c-3.756-0.572-7.065-1.685-9.93-3.343c-2.863-1.652-5.124-4.009-6.778-7.062c-1.655-3.057-2.481-7.065-2.481-12.03v-58.231h-16.419
		v-18.137h16.419v-29.592h27.111v29.592H686.98z"/>
	<path fill="#3A3A3C" d="M727.837,134.517v136.317h-27.111V134.517H727.837z"/>
	<path fill="#3A3A3C" d="M778.24,247.16c4.069,3.945,9.926,5.92,17.564,5.92c5.471,0,10.18-1.369,14.128-4.105
		c3.943-2.737,6.363-5.634,7.256-8.688h23.864c-3.819,11.837-9.676,20.305-17.564,25.393c-7.895,5.092-17.44,7.636-28.64,7.636
		c-7.765,0-14.767-1.239-21.001-3.723c-6.239-2.481-11.521-6.014-15.846-10.596c-4.329-4.582-7.672-10.053-10.023-16.419
		c-2.356-6.363-3.532-13.365-3.532-21.001c0-7.383,1.209-14.255,3.626-20.621c2.418-6.363,5.854-11.865,10.31-16.513
		c4.455-4.646,9.77-8.308,15.942-10.979c6.174-2.674,13.014-4.009,20.524-4.009c8.401,0,15.718,1.622,21.957,4.869
		c6.233,3.243,11.358,7.604,15.37,13.076c4.009,5.474,6.903,11.713,8.685,18.71c1.781,7.002,2.417,14.321,1.911,21.956h-71.215
		C771.938,236.851,774.165,243.217,778.24,247.16z M808.881,195.229c-3.243-3.561-8.178-5.345-14.795-5.345
		c-4.328,0-7.924,0.732-10.788,2.194c-2.863,1.465-5.154,3.279-6.872,5.441c-1.719,2.167-2.93,4.458-3.63,6.873
		c-0.699,2.42-1.115,4.584-1.239,6.492h44.104C814.385,204.012,812.127,198.794,808.881,195.229z"/>
	<path fill="#3A3A3C" d="M945.774,153.799c-6.938-4.835-15.18-7.255-24.727-7.255c-8.145,0-15.114,1.528-20.904,4.582
		c-5.794,3.057-10.568,7.159-14.318,12.314c-3.756,5.157-6.526,11.044-8.308,17.661c-1.784,6.619-2.671,13.492-2.671,20.621
		c0,7.765,0.887,15.113,2.671,22.05c1.781,6.938,4.552,12.982,8.308,18.138c3.75,5.154,8.558,9.26,14.414,12.316
		c5.852,3.054,12.854,4.581,21.001,4.581c5.981,0,11.293-0.985,15.94-2.96c4.646-1.972,8.654-4.708,12.03-8.211
		c3.37-3.497,6.014-7.665,7.922-12.503c1.911-4.836,3.057-10.054,3.437-15.657h18.137c-1.781,17.185-7.701,30.548-17.754,40.095
		c-10.057,9.546-23.802,14.317-41.239,14.317c-10.565,0-19.793-1.812-27.685-5.44c-7.894-3.627-14.447-8.621-19.665-14.987
		c-5.221-6.363-9.134-13.872-11.741-22.529c-2.61-8.654-3.913-17.944-3.913-27.874c0-9.929,1.399-19.25,4.199-27.97
		c2.798-8.718,6.903-16.323,12.314-22.816c5.407-6.49,12.153-11.614,20.238-15.37c8.081-3.75,17.341-5.631,27.779-5.631
		c7.127,0,13.873,0.956,20.238,2.864c6.361,1.908,12.027,4.711,16.992,8.401c4.962,3.692,9.098,8.305,12.41,13.842
		c3.307,5.538,5.472,11.934,6.49,19.186h-18.138C957.196,165.893,952.711,158.637,945.774,153.799z"/>
	<path fill="#3A3A3C" d="M996.271,201.242c2.031-6.3,5.088-11.771,9.163-16.419c4.072-4.646,9.098-8.305,15.081-10.979
		c5.983-2.671,12.856-4.009,20.621-4.009c7.892,0,14.797,1.338,20.715,4.009c5.92,2.674,10.912,6.333,14.987,10.979
		c4.072,4.647,7.126,10.119,9.163,16.419c2.035,6.3,3.057,13.079,3.057,20.335c0,7.255-1.021,14.001-3.057,20.238
		c-2.037,6.236-5.091,11.678-9.163,16.322c-4.075,4.648-9.067,8.274-14.987,10.882c-5.918,2.607-12.823,3.916-20.715,3.916
		c-7.765,0-14.638-1.309-20.621-3.916s-11.009-6.233-15.081-10.882c-4.075-4.645-7.132-10.086-9.163-16.322
		c-2.038-6.237-3.057-12.983-3.057-20.238C993.215,214.321,994.233,207.542,996.271,201.242z M1012.784,237.52
		c1.591,4.646,3.786,8.527,6.586,11.645c2.801,3.12,6.077,5.507,9.833,7.159c3.753,1.657,7.734,2.483,11.934,2.483
		s8.178-0.826,11.934-2.483c3.753-1.652,7.029-4.039,9.83-7.159c2.801-3.117,4.995-6.999,6.589-11.645
		c1.589-4.645,2.385-9.959,2.385-15.942c0-5.98-0.796-11.295-2.385-15.943c-1.594-4.645-3.788-8.558-6.589-11.741
		c-2.801-3.18-6.077-5.6-9.83-7.255c-3.756-1.652-7.734-2.481-11.934-2.481s-8.181,0.829-11.934,2.481
		c-3.756,1.655-7.032,4.075-9.833,7.255c-2.8,3.184-4.995,7.097-6.586,11.741c-1.592,4.648-2.385,9.963-2.385,15.943
		C1010.399,227.561,1011.192,232.875,1012.784,237.52z"/>
	<path fill="#3A3A3C" d="M1122.85,172.126v20.811h0.38c3.946-8.018,8.784-13.938,14.511-17.755c5.728-3.819,12.983-5.6,21.767-5.347
		v17.185c-6.492,0-12.029,0.892-16.611,2.671c-4.582,1.784-8.274,4.392-11.072,7.828c-2.803,3.437-4.841,7.607-6.11,12.506
		c-1.274,4.901-1.91,10.533-1.91,16.896v43.912h-16.227v-98.708H1122.85z"/>
	<path fill="#3A3A3C" d="M1190.432,172.126v15.657h0.38c6.746-11.961,17.438-17.947,32.076-17.947c6.492,0,11.9,0.892,16.229,2.673
		c4.325,1.785,7.828,4.265,10.499,7.446c2.673,3.183,4.551,6.969,5.634,11.36c1.079,4.393,1.621,9.261,1.621,14.604v64.914h-16.227
		v-66.822c0-6.109-1.784-10.944-5.347-14.511c-3.566-3.562-8.468-5.345-14.701-5.345c-4.965,0-9.26,0.764-12.887,2.291
		c-3.629,1.525-6.652,3.692-9.069,6.49c-2.418,2.801-4.232,6.08-5.441,9.833c-1.212,3.756-1.814,7.861-1.814,12.313v55.75h-16.227
		v-98.708H1190.432z"/>
</g>
<path fill="#231F20" d="M144.5,92.63c-1.438,0.207-2.551,1.25-2.957,2.586l-0.033-0.011l-29.241,97.05l-0.628,0.206l0.295,0.9
	l-0.361,1.198l-0.982,0.528l0.527,0.978L72.14,325.447h7.705l14.567-48.354l14.791,20.93l-19.381,27.425h4.515l17.124-24.23
	l17.123,24.23h4.513l-19.379-27.422l27.991-39.609l0.147,67.031h7.37l-0.136-62.441l24.74,35.012l-19.387,27.43h4.52l17.126-24.233
	l17.125,24.233h4.512l-19.382-27.425l15.789-22.339l14.683,49.764h7.694L148.582,95.221C148.051,93.467,146.308,92.354,144.5,92.63z
	 M141.406,121.112l0.135,61.561l-20.727,6.787L141.406,121.112z M119.52,193.758l18.691-6.121l-14.426,24.135l-6.22-11.526
	L119.52,193.758z M116.065,205.224l5.521,10.227l-17.344,29.017L116.065,205.224z M111.458,294.828l-15.698-22.212l0.844-2.804
	l42.327-13.858L111.458,294.828z M97.903,265.506l1.975-6.55l23.745-39.736l17.369,32.181L97.903,265.506z M125.819,215.544
	l15.736-26.332l0.123,55.72L125.819,215.544z M148.938,194.157l12.783,21.387l-12.686,23.496L148.938,194.157z M192.801,271.173
	l-16.718,23.653l-27.009-38.217l-0.001-0.506l43.482,14.238L192.801,271.173z M191.288,266.046l-42.224-13.822l-0.011-5.452
	l14.866-27.552l26.763,44.772L191.288,266.046z M186.499,249.814l-20.541-34.369l6.724-12.46L186.499,249.814z M171.206,197.979
	l-7.445,13.789l-14.417-24.123l20.825,6.817L171.206,197.979z M168.901,190.17l-19.985-6.545l-0.135-61.646L168.901,190.17z"/>
</svg>
